<?xml version="1.0" standalone="no"?>
<!DOCTYPE svg PUBLIC "-//W3C//DTD SVG 20010904//EN"
 "http://www.w3.org/TR/2001/REC-SVG-20010904/DTD/svg10.dtd">
<svg version="1.0" xmlns="http://www.w3.org/2000/svg"
 width="512.000000pt" height="512.000000pt" viewBox="0 0 512.000000 512.000000"
 preserveAspectRatio="xMidYMid meet">
<metadata>
Created by potrace 1.14, written by Peter Selinger 2001-2017
</metadata>
<g transform="translate(0.000000,512.000000) scale(0.100000,-0.100000)"
fill="#000000" stroke="none">
<path d="M1960 4745 l0 -75 -150 0 -150 0 0 -75 0 -75 -150 0 -150 0 0 -75 0
-75 -155 0 -155 0 0 -75 0 -75 -150 0 -150 0 0 -75 0 -75 -150 0 -150 0 0 -75
0 -75 -75 0 -75 0 0 -230 0 -230 75 0 75 0 0 -150 0 -150 75 0 75 0 0 -150 0
-150 75 0 75 0 0 -75 0 -75 75 0 75 0 0 -150 0 -150 75 0 75 0 0 -75 0 -75 75
0 75 0 0 -75 0 -75 80 0 80 0 0 -75 0 -75 75 0 75 0 0 -75 0 -75 75 0 75 0 0
-75 0 -75 75 0 75 0 0 -75 0 -75 75 0 75 0 0 -75 0 -75 150 0 150 0 0 -80 0
-80 150 0 150 0 0 80 0 80 150 0 150 0 0 75 0 75 75 0 75 0 0 75 0 75 150 0
150 0 0 75 0 75 150 0 150 0 0 -150 0 -150 75 0 75 0 0 -75 0 -75 80 0 80 0 0
-155 0 -155 75 0 75 0 0 -75 0 -75 75 0 75 0 0 -150 0 -150 75 0 75 0 0 -75 0
-75 75 0 75 0 0 -75 0 -75 150 0 150 0 0 300 0 300 -75 0 -75 0 0 305 0 305
-75 0 -75 0 0 300 0 300 -75 0 -75 0 0 300 0 300 -75 0 -75 0 0 225 0 225 -75
0 -75 0 0 150 0 150 -75 0 -75 0 0 75 0 75 -155 0 -155 0 0 -75 0 -75 -75 0
-75 0 0 -75 0 -75 -75 0 -75 0 0 -75 0 -75 -75 0 -75 0 0 -75 0 -75 -75 0 -75
0 0 225 0 225 -75 0 -75 0 0 230 0 230 -75 0 -75 0 0 225 0 225 -75 0 -75 0 0
150 0 150 -75 0 -75 0 0 75 0 75 -225 0 -225 0 0 -75z"/>
</g>
</svg>
